<svg version="1" xmlns="http://www.w3.org/2000/svg" width="2878.667" height="2878.667" viewBox="0 0 2159.000000 2159.000000"><path d="M2146 227.1c-5.8 2.2-19.9 7.7-31.5 12.1-196.5 75.5-426.3 179.9-608.5 276.6-468.2 248.4-745 494.4-810.4 720.5-10.6 36.4-15 67.2-15 104.2-.1 32 2.4 53.3 9.4 82.3 3.4 13.9 12.7 43.2 13.8 43.2.4-.1 4.8-7.3 9.7-16.2 72.8-130.3 168.6-271.1 266.7-391.9 163.5-201.3 358.6-377.6 549.8-496.6 36.9-23 106-61.6 107.6-60.1.2.3-7.3 5.1-16.8 10.8-85.4 51-169.6 110.9-247.3 175.9-79.9 66.9-162.2 147.8-234.5 230.5-160.4 183.6-299.4 402.3-409.8 645.1-21.3 46.9-51 118.1-67.2 161.2-2.9 7.9-5.5 14.1-5.8 13.9-.2-.3-2.1-8.7-4.2-18.8-8.1-38.6-18.9-81.1-29-113.8-2.8-9.1-9.3-31.1-14.4-49-44.1-152.3-90.3-273.1-150.2-393-25.7-51.3-46.6-89.1-72.6-131.3l-10.4-16.8 1.7-8.2c9.5-47 8.5-93.4-2.7-134.6-19.8-72-73.7-133.1-156.9-177.8-42.9-22.9-90.4-40.8-144.5-54.3-25.3-6.3-64.4-14-71.3-14-1.1 0 1.8 2.9 7.1 7.4 27.3 22.7 47.6 55.5 62.7 101 7.2 21.8 13.8 48.5 23.5 95.6 18.8 91.3 30.2 126.2 50.7 154.7 35.1 49 100.2 80.3 176.6 84.8l11.9.7-3.8-7.3c-51.6-102.9-118-215.4-174.9-296.4-6.4-9.1-11.5-16.8-11.2-17.1.5-.5 44.1 45.2 58.7 61.6 131.1 147.6 233.9 330.1 304.1 540 57.7 172.7 91.9 356.3 99.2 533l.2 5.5 54 22.2c29.7 12.3 54.3 22.3 54.6 22.3.3 0 2.2-6 4.3-13.3 24.5-84.6 71.8-225 116.1-344.1l10.8-28.8 4.6.6c55.4 7.8 129.2 10.3 191.1 6.5 138.3-8.4 259.1-44.7 350-105.2 62.3-41.4 112.3-94.5 149-158.2 12-20.8 33.2-65.7 53.5-113.5 25.8-60.7 48.1-118.6 94.2-244.5 55.8-152.7 83.6-222.9 116.6-294.5 58.4-126.9 119.1-220.8 189.6-293.3 47.3-48.6 93.1-84 149.6-115.4 8.2-4.6 14.2-8.3 13.5-8.3-.8.1-6.2 1.9-12 4.1z"/></svg>